<svg width="329.968" xmlns="http://www.w3.org/2000/svg" height="77.143" viewBox="0 0 329.968 77.143" xmlns:xlink="http://www.w3.org/1999/xlink" enable-background="new 0 0 329.968 77.143">
<g fill="none" stroke="#000" stroke-linejoin="round" stroke-linecap="round" stroke-miterlimit="10">
<path d="m329.149,60.641c-11.742-.469-18.414-7.141-26.06-8.633-8.788-1.716-14.215,.77-25.488-.409-11.272-1.179-12.213-9.686-20.198-10.626-7.985-.939-19.381,7.925-27.836,6.046-8.456-1.879-10.334-18.79-24.427-18.32-14.092,.47-41.807,23.017-58.246,47.444 0,0-14.019-7.061-48.779-19.041-34.76-11.979-85.491-28.207-85.491-28.207s47.913-3.865 47.913-10.82c0-6.955-59.656-16.616-59.656-16.616"/>
<path d="m14.492,23.163-7.104,17.341"/>
</g>
</svg>
